<?xml version="1.0" encoding="UTF-8"?>
<svg width="19px" height="24px" viewBox="0 0 19 24" version="1.1" xmlns="http://www.w3.org/2000/svg" xmlns:xlink="http://www.w3.org/1999/xlink">
    <title>Logo / Ryan Seal</title>
    <g id="Login" stroke="none" stroke-width="1" fill="none" fill-rule="evenodd">
        <g id="Ryan.com-Login" transform="translate(-1482.000000, -169.000000)">
            <g id="Group" transform="translate(1479.000000, 169.000000)">
                <g id="Group-10" transform="translate(3.000000, 0.000000)">
                    <path d="M11.3487638,0.0807416713 C9.71763565,-0.172793946 8.04996321,0.17536314 6.65651894,1.06033351 L14.0034577,11.2627825 L4.20753935,23.1403335 C4.73604262,23.4267656 5.30625688,23.6284066 5.89733527,23.7378845 C10.4230496,24.5509458 15.3210087,19.9321702 16.8197842,13.3835988 C18.3185598,6.83502739 15.8695802,0.893802896 11.3487638,0.0611498346" id="Path" fill="#062668"></path>
                    <path d="M7.44998833,11.9142111 L3.97733527,3.28890494 C2.23146751,5.3287641 1.01668992,7.76841437 0.441008739,10.3909458 C-0.460215751,14.3093131 0.0638658816,18.041558 1.61162098,20.564007 L7.44998833,11.9142111 Z" id="Path" fill="#BA832E"></path>
                    <path d="M16.844274,18.6929866 C17.4558258,18.6790415 18.0148729,19.0369587 18.2581728,19.598203 C18.5014726,20.1594473 18.3805266,20.812142 17.9522854,21.2489481 C17.5240442,21.6857541 16.8738722,21.8195998 16.3079205,21.5874603 C15.7419689,21.3553208 15.3730527,20.8034701 15.3748863,20.1917621 C15.3669893,19.7969896 15.518306,19.4156507 15.7947303,19.1336979 C16.0711545,18.8517452 16.4494226,18.6929076 16.844274,18.6929866 L16.844274,18.6929866 Z M16.844274,18.9280886 C16.1755485,18.9697015 15.6544898,19.5241921 15.6544898,20.1942111 C15.6544898,20.86423 16.1755485,21.4187207 16.844274,21.4603335 C17.5129995,21.4187207 18.0340583,20.86423 18.0340583,20.1942111 C18.0340583,19.5241921 17.5129995,18.9697015 16.844274,18.9280886 Z M16.5650904,21.0635988 L16.3006006,21.0635988 L16.3006006,19.3933947 C16.4625672,19.3673553 16.62635,19.3542527 16.7903965,19.3542111 C16.9718741,19.3413914 17.1529563,19.3840995 17.3095802,19.47666 C17.4138175,19.5609249 17.470473,19.6906842 17.4614169,19.8244151 C17.4612504,20.0202392 17.3246366,20.1894772 17.1332536,20.2309458 L17.1332536,20.2309458 C17.2801924,20.2554355 17.3781516,20.3876804 17.4124373,20.6325784 C17.4277437,20.7758875 17.4640508,20.916165 17.5201924,21.0489049 L17.2410087,21.0489049 C17.179797,20.9141973 17.1417132,20.7701412 17.1283557,20.6227825 C17.1252703,20.5342846 17.0843135,20.4513773 17.0159037,20.3951501 C16.9474939,20.3389229 16.858225,20.3147954 16.7708047,20.3289049 L16.5846822,20.3289049 L16.5650904,21.0635988 Z M16.5650904,20.1378845 L16.7561108,20.1378845 C16.9765189,20.1378845 17.1626414,20.0595172 17.1626414,19.8489049 C17.1626414,19.6382927 17.0548863,19.5599253 16.7561108,19.5599253 L16.5650904,19.5599253 L16.5650904,20.1378845 Z" id="Shape" fill="#062668"></path>
                </g>
            </g>
        </g>
    </g>
</svg>